<svg xmlns="http://www.w3.org/2000/svg" fill="none" viewBox="0 0 43 42"><g clip-path="url(#clip0_208_1591)"><path fill="#fff" d="M0 0h43v42h-43z"/><path fill="#2D383F" d="m15.73 27.24 3.77-3.88 4.29 3.88h7.34l-11.68-11.24-11.58 11.24z"/><path fill="#2D383F" d="m26.52 9.2-5.56 5.56 3.67 3.7 1.89-1.85 10.31 10.08a16.5 16.5 0 0 1-15.5 10.55c-9.13 0-16.53-7.27-16.53-16.24a16.45 16.45 0 0 1 16.58-16.24c8.1 0 14.89 5.79 16.25 13.33l5 5.18a20.7 20.7 0 0 0-6.12-17.11 21.4 21.4 0 0 0-15.13-6.16 21.4 21.4 0 0 0-15.12 6.15 20.6 20.6 0 0 0-6.26 14.85 20.6 20.6 0 0 0 6.26 14.85 21.4 21.4 0 0 0 15.12 6.15c5.7 0 11.07-2.17 15.12-6.15a20.5 20.5 0 0 0 5.28-8.56c.19-.55.33-1.16.47-1.71l-4.33-4.49z"/></g><defs><clipPath id="clip0_208_1591"><path fill="#fff" d="M0 0h43v42h-43z"/></clipPath></defs></svg>