<svg xmlns="http://www.w3.org/2000/svg" xmlns:xlink="http://www.w3.org/1999/xlink"><symbol id="sprite-address" fill="none" viewBox="0 0 26 26"><path stroke="#2D383F" stroke-linecap="round" stroke-linejoin="round" d="M21.86 9.63c0-4.67-3.96-8.45-8.86-8.45s-8.86 3.78-8.86 8.45v.5c0 1.87.6 3.7 1.75 5.21l7.1 9.47h.03l7.1-9.47a8.7 8.7 0 0 0 1.74-5.2z"/><path stroke="#2D383F" stroke-linecap="round" stroke-linejoin="round" d="M11.27 6.25a4.2 4.2 0 0 1 3.46 0 3.8 3.8 0 0 1 2.16 2.58 3.7 3.7 0 0 1-.77 3.22c-.76.9-1.9 1.43-3.12 1.43s-2.36-.52-3.12-1.43a3.7 3.7 0 0 1-.77-3.22 3.9 3.9 0 0 1 2.16-2.58"/></symbol><use xlink:href="#sprite-address" width="26" height="26"/><view id="sprite-address-view" viewBox="0 0 26 26"/><symbol id="sprite-advantage-boots" fill="none" viewBox="0 0 24 24"><path fill="#0266C1" d="M22.6 15.54c.68-2.29.12-4.88-.47-6.68a.4.4 0 0 0-.06-.2 16 16 0 0 0-.55-1.4.8.8 0 0 0 .49-.77v-3.47c0-.46-.35-.84-.78-.84h-9.51c-.22 0-.4.19-.4.42v.02c.14 2.5-.03 4.2-.52 5.4l-.03.04v.06a4 4 0 0 1-.75 1.18l-.03.03v.02a6 6 0 0 1-1.55 1.13q-1.5.71-3.06 1.23l-.2.07c-3.62 1.29-4.1 3.63-4.09 4.8v3.04q0 .23.19.35a11 11 0 0 0 2.84 1.33c.21.06.42-.07.48-.3l.02-.12v-.1h.57v.42a.4.4 0 0 0 .32.42q.5.09 1 .13.17.01.3-.1a.4.4 0 0 0 .12-.32v-.52h.57v.6c0 .22.18.4.39.4q.48.01 1-.04c.2-.02.36-.2.36-.42v-.54h.57v.37c0 .23.16.42.38.42h.06a12 12 0 0 0 2.1-.55l.06-.03c2.71-1.66 4.43-.29 4.5-.23a.4.4 0 0 0 .24.09h.48c.21 0 .39-.2.39-.42v-.7h.55v.69c0 .23.17.42.39.42h1.25c.21 0 .38-.19.38-.42v-.7h.58v.7c0 .23.17.42.38.42h.96c.22 0 .39-.19.39-.42v-4.5a.4.4 0 0 0-.31-.41m-9.2-12.52h7.82v3.46h-7.81zm-4.86 8.32v.02a7 7 0 0 1 .88.93 1 1 0 0 0-.1.41c-.01.44.32.8.73.8s.74-.35.74-.79c0-.41-.29-.76-.67-.8a6 6 0 0 0-.84-.98 6 6 0 0 0 .98-.75q.56.57 1.04 1.23c-.13.41.07.87.46 1.01s.8-.07.94-.49-.07-.87-.45-1.01l-.25-.05h-.1q-.5-.69-1.1-1.3.27-.36.48-.78.9.5 1.74 1.13c0 .44.33.8.74.8.41.01.75-.34.75-.79s-.32-.8-.74-.81a1 1 0 0 0-.34.08 17 17 0 0 0-1.82-1.16c.42-1.2.6-2.81.52-5h.5v3.45c0 .46.35.84.78.84h7.26q.16.34.46 1.1h-.16c-2.36.02-4.25 2.09-4.23 4.62 0 1.44.64 2.8 1.72 3.65-3.14.89-7.85 1.94-11.82 1.67.73-3.15-.14-5.09-.71-5.94a25 25 0 0 0 2.6-1.1m-3.38 1.34c.42.53 1.51 2.3.71 5.58a9 9 0 0 1-3.97-1.29l-.03-.29v-.03c-.03-.89.28-2.8 3.3-3.97m16.8 7.36v-.7a.4.4 0 0 0-.4-.41h-1.34c-.21 0-.39.19-.39.42v.7h-.47v-.7a.4.4 0 0 0-.4-.42h-1.33c-.21 0-.39.19-.39.42v.68c-.52-.36-2.45-1.39-5.18.25q-.73.26-1.48.42v-.29a.4.4 0 0 0-.39-.41h-1.34c-.2 0-.38.18-.38.41v.58h-.2v-.59c0-.23-.17-.42-.39-.42h-1.34c-.22 0-.39.2-.39.42v.5l-.2-.03v-.47c0-.23-.17-.42-.38-.42h-1.35a.4.4 0 0 0-.39.37 10 10 0 0 1-1.97-.95v-1.5c1.69.97 3.87 1.33 6.2 1.33 6.17 0 13.24-2.54 14.07-2.85v3.66zm-.2-4.4c-.33.12-1.14.42-2.26.74a3.9 3.9 0 0 1-1.62-5.01 3.5 3.5 0 0 1 3.09-2.12q.23 0 .46.03c.57 1.78 1.08 4.3.33 6.36"/><path fill="#0266C1" d="M14.9 3.53c-.63 0-1.13.54-1.13 1.21s.5 1.21 1.13 1.21 1.12-.54 1.12-1.2-.5-1.22-1.12-1.22m0 1.6c-.2 0-.36-.18-.36-.39s.16-.38.36-.38.35.17.35.38-.16.38-.35.38"/></symbol><use xlink:href="#sprite-advantage-boots" width="24" height="24" y="26"/><view id="sprite-advantage-boots-view" viewBox="0 26 24 24"/><symbol id="sprite-advantage-crown" fill="none" viewBox="0 0 24 24"><path stroke="#0266C1" d="M19.3 21.82h-14.6m18.21-14.06-3.2 10.57h-15.43l-3.19-10.57 6.3 3.82 4.61-9.4 4.61 9.4z"/></symbol><use xlink:href="#sprite-advantage-crown" width="24" height="24" y="50"/><view id="sprite-advantage-crown-view" viewBox="0 50 24 24"/><symbol id="sprite-advantage-leaf" fill="none" viewBox="0 0 24 24"><path stroke="#0266C1" stroke-linecap="round" stroke-linejoin="round" d="M11.66 17.72a10.6 10.6 0 0 0-5.9-7.14 11 11 0 0 0-4.67-1.04c.1 2.21.91 4.36 2.37 6.13a11 11 0 0 0 8.47 3.97q-.04-.96-.27-1.92m0 0c-.6-2.56-2.18-4.8-4.38-6.28l.13-.66a10.5 10.5 0 0 1 4.59-6.42 10.5 10.5 0 0 1 4.59 6.42l.13.66a10.5 10.5 0 0 0-4.38 6.28m-.68 0q.23.96.27 1.92h.13a11 11 0 0 0 2.71-.33l.02-.02q-1.33.33-2.72.35m.27-1.92a10.6 10.6 0 0 1 5.9-7.14 11 11 0 0 1 4.67-1.04 10.3 10.3 0 0 1-2.37 6.13 11 11 0 0 1-8.47 3.97m.27-1.92q-.23.96-.27 1.92"/></symbol><use xlink:href="#sprite-advantage-leaf" width="24" height="24" y="74"/><view id="sprite-advantage-leaf-view" viewBox="0 74 24 24"/><symbol id="sprite-advantage-path" fill="none" viewBox="0 0 24 24"><g clip-path="url(#a)"><path stroke="#0266C1" stroke-linecap="round" d="M19.8 9.56h-5.85a3.3 3.3 0 0 0-3.31 3.34 3.3 3.3 0 0 0 3.3 3.34h2.54c1.83 0 3.31 1.49 3.31 3.33s-1.48 3.34-3.31 3.34h-12.27m3.12-5.53c0-1.74-1.4-3.14-3.12-3.14s-3.12 1.4-3.12 3.14v.12c0 .68.22 1.36.62 1.91l2.5 3.46q0 0 0 0l2.5-3.46a3.3 3.3 0 0 0 .61-1.91zm-2.52-1.3.02.01c.38.18.65.53.75.94a1.4 1.4 0 0 1-1.36 1.7h-.03a1.4 1.4 0 0 1-1.35-1.7c.1-.41.37-.76.75-.94h.02a1.4 1.4 0 0 1 1.2 0Zm18.1-11.83c0-1.73-1.4-3.16-3.12-3.16s-3.11 1.43-3.11 3.16c0 .69.21 1.36.62 1.9l2.49 3.37q0 0 0 0l2.5-3.37a3.2 3.2 0 0 0 .62-1.9Zm-2.52-1.36.04.02a1.34 1.34 0 0 1 .46 2.06l-.01.01a1.4 1.4 0 0 1-1.05.5h-.07c-.4 0-.8-.18-1.05-.5l-.02-.01a1.34 1.34 0 0 1 .47-2.06l.04-.02a1.4 1.4 0 0 1 1.19 0Z"/></g><defs><clipPath id="a"><path fill="#fff" d="M0 0h24v24h-24z"/></clipPath></defs></symbol><use xlink:href="#sprite-advantage-path" width="24" height="24" y="98"/><view id="sprite-advantage-path-view" viewBox="0 98 24 24"/><symbol id="sprite-advantage-shield" fill="none" viewBox="0 0 24 24"><path stroke="#0266C1" d="m9.55 11.9 2.45 2.45 4.3-4.28m-4.3-8.98a18 18 0 0 1-9.4 1.95 18 18 0 0 0-.14 6.97 18 18 0 0 0 6.17 10.67 18 18 0 0 0 3.37 2.23 18 18 0 0 0 3.37-2.23 18 18 0 0 0 6.17-10.67c.42-2.33.36-4.7-.14-6.97a18 18 0 0 1-9.4-1.95Z"/></symbol><use xlink:href="#sprite-advantage-shield" width="24" height="24" y="122"/><view id="sprite-advantage-shield-view" viewBox="0 122 24 24"/><symbol id="sprite-arrow-more" fill="none" viewBox="0 0 9 14"><path stroke="currentColor" stroke-width="2" d="m1.5 13 6-6-6-6"/></symbol><use xlink:href="#sprite-arrow-more" width="9" height="14" y="146"/><view id="sprite-arrow-more-view" viewBox="0 146 9 14"/><symbol id="sprite-arrow-next" fill="none" viewBox="0 0 14 9"><path fill="currentColor" d="M13.35 4.85a.5.5 0 0 0 0-.7l-3.18-3.19a.5.5 0 0 0-.7.71l2.82 2.83-2.83 2.83a.5.5 0 1 0 .71.7zm-13.35.15h13v-1h-13z"/></symbol><use xlink:href="#sprite-arrow-next" width="14" height="9" y="160"/><view id="sprite-arrow-next-view" viewBox="0 160 14 9"/><symbol id="sprite-arrow-prev" fill="none" viewBox="0 0 14 9"><path fill="currentColor" d="M.65 4.85a.5.5 0 0 1 0-.7l3.18-3.19a.5.5 0 1 1 .7.71l-2.82 2.83 2.83 2.83a.5.5 0 1 1-.71.7zm13.35.15h-13v-1h13z"/></symbol><use xlink:href="#sprite-arrow-prev" width="14" height="9" y="169"/><view id="sprite-arrow-prev-view" viewBox="0 169 14 9"/><symbol id="sprite-days" fill="none" viewBox="0 0 20 20"><path fill="#fff" d="M13.55 6.46a5 5 0 0 0-3.55-1.49 5 5 0 0 0-3.54 1.49c-.9.9-1.49 2.17-1.49 3.54a5.05 5.05 0 0 0 5.03 5.03 5 5 0 0 0 3.55-1.48c.9-.9 1.48-2.18 1.48-3.55a5 5 0 0 0-1.48-3.54m-.96 6.13a3.7 3.7 0 0 1-2.59 1.06 3.7 3.7 0 0 1-2.6-1.06 3.7 3.7 0 0 1-1.05-2.59 3.7 3.7 0 0 1 1.06-2.6 3.7 3.7 0 0 1 2.59-1.05 3.7 3.7 0 0 1 2.6 1.06 3.7 3.7 0 0 1 1.05 2.59 3.7 3.7 0 0 1-1.06 2.6m6.72-3.29h-2.03a.7.7 0 0 0-.7.69.7.7 0 0 0 .7.69h2.03a.7.7 0 0 0 .69-.69.7.7 0 0 0-.69-.69m-9.31 7.28a.7.7 0 0 0-.69.68v2.04a.7.7 0 0 0 .69.69.7.7 0 0 0 .69-.69v-2.03a.7.7 0 0 0-.69-.7m7.06-.47-1.45-1.45c-.24-.27-.69-.27-.95 0a.67.67 0 0 0 0 .95l1.45 1.45a.67.67 0 0 0 .95 0 .67.67 0 0 0 0-.95m-7.06-16.11a.7.7 0 0 0-.69.69v2.04a.7.7 0 0 0 .69.68.7.7 0 0 0 .69-.69v-2.03a.7.7 0 0 0-.69-.69m7.09 2.94a.67.67 0 0 0-.95 0l-1.46 1.45a.67.67 0 0 0 0 .95c.24.27.69.27.95 0l1.46-1.45a.67.67 0 0 0 0-.95m-14.36 6.37h-2.04a.7.7 0 0 0-.69.69c0 .37.3.69.69.69h2.04a.7.7 0 0 0 .68-.69.7.7 0 0 0-.69-.69m2.6 5.35c-.24-.27-.69-.27-.95 0l-1.46 1.45a.67.67 0 0 0 0 .95.67.67 0 0 0 .95 0l1.46-1.45a.67.67 0 0 0 0-.95m0-10.27-1.46-1.45a.67.67 0 0 0-.95 0 .67.67 0 0 0 0 .95l1.46 1.45a.67.67 0 0 0 .95 0 .67.67 0 0 0 0-.95"/></symbol><use xlink:href="#sprite-days" width="20" height="20" y="178"/><view id="sprite-days-view" viewBox="0 178 20 20"/><symbol id="sprite-level" fill="none" viewBox="0 0 12 12"><g stroke="#fff" stroke-linecap="round" stroke-miterlimit="16" clip-path="url(#a)"><path d="M10.9 11.46h-1.95v-10.92h1.96zm-3.92 0v-7.94h-1.96v7.93zm-3.93 0v-4.97h-1.96v4.97z"/></g><defs><clipPath id="a"><path fill="#fff" d="M0 0h12v12h-12z"/></clipPath></defs></symbol><use xlink:href="#sprite-level" width="12" height="12" y="198"/><view id="sprite-level-view" viewBox="0 198 12 12"/><symbol id="sprite-location" fill="none" viewBox="0 0 9 12"><path fill="#fff" d="M4.5 0a4.46 4.46 0 0 0-4.5 4.42q0 .95.4 1.8a28 28 0 0 0 3.91 5.7.25.25 0 0 0 .38 0c.63-.73 2.8-3.28 3.92-5.7a4 4 0 0 0 .39-1.8 4.46 4.46 0 0 0-4.5-4.42m0 6.71a2.3 2.3 0 0 1-2.34-2.3c0-1.26 1.05-2.29 2.34-2.29s2.34 1.03 2.34 2.3-1.05 2.3-2.34 2.3"/></symbol><use xlink:href="#sprite-location" width="9" height="12" y="210"/><view id="sprite-location-view" viewBox="0 210 9 12"/><symbol id="sprite-mail" fill="none" viewBox="0 0 26 26"><path stroke="#2D383F" stroke-linecap="round" stroke-linejoin="round" d="M24.82 6.57v12.86c0 1.02-.76 1.84-1.69 1.84h-20.26c-.93 0-1.69-.82-1.69-1.83v-12.87m23.64 0c0-1.02-.76-1.84-1.69-1.84h-20.26c-.93 0-1.69.82-1.69 1.84m23.64 0-9.62 8.98a3.17 3.17 0 0 1-4.4 0l-9.62-8.98"/></symbol><use xlink:href="#sprite-mail" width="26" height="26" y="222"/><view id="sprite-mail-view" viewBox="0 222 26 26"/><symbol id="sprite-menu-close" fill="none" viewBox="0 0 26 26"><path stroke="#fff" stroke-width="2" d="m2.36 2.36 10.64 10.64m10.64 10.64-10.64-10.64m0 0 10.64-10.64-21.28 21.28"/></symbol><use xlink:href="#sprite-menu-close" width="26" height="26" y="248"/><view id="sprite-menu-close-view" viewBox="0 248 26 26"/><symbol id="sprite-menu-open" fill="none" viewBox="0 0 26 26"><path fill="#fff" d="M0 3.55h26v2.17h-26zm0 16.74h26v2.17h-26zm0-8.37h16.64v2.16h-16.64z"/></symbol><use xlink:href="#sprite-menu-open" width="26" height="26" y="274"/><view id="sprite-menu-open-view" viewBox="0 274 26 26"/><symbol id="sprite-nights" fill="none" viewBox="0 0 20 20"><path fill="#fff" d="M17.62 11.1a.6.6 0 0 0-.47.1 6 6 0 0 1-1.82 1.08q-.95.37-2.06.37a6 6 0 0 1-4.26-1.77 6 6 0 0 1-1.75-4.27q.01-1.05.32-1.99a6 6 0 0 1 .98-1.76.53.53 0 0 0-.08-.74.6.6 0 0 0-.47-.1 8.3 8.3 0 0 0-4.33 2.9 8 8 0 0 0-1.68 4.95c0 2.24.9 4.27 2.37 5.75a8 8 0 0 0 5.73 2.38 8 8 0 0 0 5-1.74 8 8 0 0 0 2.87-4.5c.1-.3-.06-.6-.35-.65m-3.13 4.28a7 7 0 0 1-4.35 1.52 7 7 0 0 1-4.97-2.07 7 7 0 0 1-2.07-4.99c0-1.62.54-3.1 1.46-4.28a7 7 0 0 1 2.35-1.97 7 7 0 0 0-.29.7 7 7 0 0 0-.39 2.33c0 1.95.8 3.74 2.07 5a7 7 0 0 0 4.99 2.08q1.29 0 2.43-.43.4-.14.78-.33a7.5 7.5 0 0 1-2 2.44"/></symbol><use xlink:href="#sprite-nights" width="20" height="20" y="300"/><view id="sprite-nights-view" viewBox="0 300 20 20"/><symbol id="sprite-odnoklassniki" fill="none" viewBox="0 0 9 16"><path fill="currentColor" d="M4.5 2.42c.92 0 1.66.77 1.66 1.71s-.74 1.7-1.66 1.7-1.66-.76-1.66-1.7.74-1.71 1.66-1.71m0 5.84a4.1 4.1 0 0 0 4.01-4.13c0-2.28-1.8-4.13-4.01-4.13s-4 1.85-4 4.13 1.79 4.13 4 4.13m1.62 3.37a7 7 0 0 0 2.33-1 1.23 1.23 0 0 0 .37-1.66 1.15 1.15 0 0 0-1.62-.38 5 5 0 0 1-5.4 0 1.15 1.15 0 0 0-1.62.38 1.23 1.23 0 0 0 .37 1.66 7 7 0 0 0 2.33 1l-2.24 2.3a1.24 1.24 0 0 0 0 1.71 1.16 1.16 0 0 0 1.66 0l2.2-2.26 2.2 2.26c.46.48 1.2.48 1.66 0a1.24 1.24 0 0 0 0-1.7z"/></symbol><use xlink:href="#sprite-odnoklassniki" width="9" height="16" y="320"/><view id="sprite-odnoklassniki-view" viewBox="0 320 9 16"/><symbol id="sprite-phone" fill="none" viewBox="0 0 26 26"><g clip-path="url(#a)"><path stroke="#2D383F" stroke-linecap="round" stroke-linejoin="round" d="M22.84 23.69a2 2 0 0 1-1.99 1.12 22 22 0 0 1-13.29-6.4 22.3 22.3 0 0 1-6.37-13.34 2 2 0 0 1 1.12-2l3.25-1.66c1.26-.64 2.78.11 3.22 1.46a22 22 0 0 0 1.53 3.57c.49.9.16 2.05-.77 2.48a2.13 2.13 0 0 0-.62 3.44l4.67 4.69a2.12 2.12 0 0 0 3.43-.62 1.9 1.9 0 0 1 2.61-.85 22 22 0 0 0 3.46 1.41c1.37.43 2.14 1.98 1.5 3.25z"/></g><defs><clipPath id="a"><path fill="#fff" d="M0 0h26v26h-26z"/></clipPath></defs></symbol><use xlink:href="#sprite-phone" width="26" height="26" y="336"/><view id="sprite-phone-view" viewBox="0 336 26 26"/><symbol id="sprite-reddit" fill="none" viewBox="0 0 14 15"><path fill="currentColor" d="M8.36 0c-.45 0-.87.24-1.14.6s-.42.78-.53 1.23c-.17.73-.22 1.53-.23 2.26a7 7 0 0 0-3.36 1.1 2 2 0 0 0-1.3-.53c-.5.01-.98.24-1.34.72-.68.92-.6 2.42.19 3.31a5 5 0 0 0-.08.84c0 3.02 2.88 5.47 6.43 5.47s6.43-2.45 6.43-5.47a5 5 0 0 0-.08-.84c.79-.89.87-2.39.19-3.3a1.7 1.7 0 0 0-1.35-.73c-.44 0-.9.2-1.3.54a7 7 0 0 0-3.33-1.11c.02-.67.06-1.37.19-1.9q.12-.49.27-.69c.15-.2.17-.19.34-.19.37 0 .41.13.63.44q.15.23.44.53c.2.19.51.35.84.35v-1.32c-.1 0-.11 0-.17-.06q-.09-.1-.27-.37c-.26-.35-.74-.88-1.47-.88m3.54.12c-.84 0-1.53.83-1.53 1.85 0 1.03.69 1.85 1.53 1.85s1.53-.82 1.53-1.85c0-1.02-.68-1.85-1.53-1.85m0 .66c.55 0 .99.54.99 1.2s-.44 1.18-.99 1.18-.98-.53-.98-1.19.44-1.19.98-1.19m-4.9 4.34c3.02 0 5.57 2.02 5.57 4.41s-2.56 4.42-5.57 4.42-5.57-2.02-5.57-4.42 2.55-4.41 5.57-4.41m-5.17.6q.22 0 .46.12-.83.75-1.28 1.72c-.2-.5-.15-1.14.1-1.48a.9.9 0 0 1 .72-.37m10.35 0a.9.9 0 0 1 .7.37c.26.34.32.97.11 1.48a5 5 0 0 0-1.28-1.72q.24-.12.46-.13m-7.35 1.65c-.54 0-.99.53-.99 1.19s.45 1.19.99 1.19c.55 0 .99-.53.99-1.2 0-.65-.44-1.18-.99-1.18m4.36 0c-.55 0-.99.53-.99 1.19s.44 1.19.99 1.19.99-.53.99-1.2c0-.65-.45-1.18-1-1.18m-4.88 4.04c.35.87 1.42 1.71 2.71 1.71s2.38-.84 2.72-1.7c-.63.48-1.62.82-2.72.82s-2.08-.34-2.7-.83"/></symbol><use xlink:href="#sprite-reddit" width="14" height="15" y="362"/><view id="sprite-reddit-view" viewBox="0 362 14 15"/><symbol id="sprite-stars-3" fill="none" viewBox="0 0 84 16"><path fill="#fff" d="m7.63 11.7 4.72 2.6-1.25-4.92 4.17-3.31-5.5-.43-2.14-4.64-2.14 4.64-5.49.43 4.17 3.31-1.25 4.92zm17 0 4.72 2.6-1.25-4.92 4.17-3.31-5.5-.43-2.14-4.64-2.14 4.64-5.49.43 4.17 3.3-1.25 4.93zm17 0 4.72 2.6-1.25-4.92 4.17-3.31-5.5-.43-2.14-4.64-2.14 4.64-5.49.43 4.17 3.3-1.25 4.93z"/><path fill="#fff" fill-rule="evenodd" d="m58.63 10.55 3.18 1.76-.83-3.31 2.68-2.13-3.54-.28-1.49-3.2-1.48 3.2-3.54.28 2.68 2.13-.84 3.3zm-4.71 3.75 1.24-4.92-4.16-3.31 5.49-.43 2.14-4.64 2.15 4.64 5.49.43-4.17 3.31 1.25 4.92-4.72-2.6zm21.71-3.75 3.19 1.76-.84-3.31 2.68-2.13-3.54-.28-1.49-3.2-1.48 3.2-3.54.28 2.68 2.13-.84 3.3zm-4.71 3.75 1.24-4.92-4.16-3.31 5.49-.43 2.14-4.64 2.15 4.64 5.49.43-4.17 3.31 1.25 4.92-4.72-2.6z" clip-rule="evenodd"/></symbol><use xlink:href="#sprite-stars-3" width="84" height="16" y="377"/><view id="sprite-stars-3-view" viewBox="0 377 84 16"/><symbol id="sprite-stars-4" fill="none" viewBox="0 0 84 16"><path fill="#fff" d="m7.63 11.7 4.72 2.6-1.25-4.92 4.17-3.31-5.5-.43-2.14-4.64-2.14 4.64-5.49.43 4.17 3.31-1.25 4.92zm17 0 4.72 2.6-1.25-4.92 4.17-3.31-5.5-.43-2.14-4.64-2.14 4.64-5.49.43 4.17 3.3-1.25 4.93zm17 0 4.72 2.6-1.25-4.92 4.17-3.31-5.5-.43-2.14-4.64-2.14 4.64-5.49.43 4.17 3.3-1.25 4.93zm17 0 4.72 2.6-1.25-4.92 4.17-3.31-5.5-.43-2.14-4.64-2.14 4.64-5.49.43 4.17 3.3-1.25 4.93z"/><path fill="#fff" fill-rule="evenodd" d="m75.63 10.55 3.19 1.76-.84-3.31 2.68-2.13-3.54-.28-1.49-3.2-1.48 3.2-3.54.28 2.68 2.13-.84 3.3zm-4.71 3.75 1.24-4.92-4.16-3.31 5.49-.43 2.14-4.64 2.15 4.64 5.49.43-4.17 3.31 1.25 4.92-4.72-2.6z" clip-rule="evenodd"/></symbol><use xlink:href="#sprite-stars-4" width="84" height="16" y="393"/><view id="sprite-stars-4-view" viewBox="0 393 84 16"/><symbol id="sprite-stars-5" fill="none" viewBox="0 0 84 16"><path fill="#fff" d="m7.63 11.7 4.72 2.6-1.25-4.92 4.17-3.31-5.5-.43-2.14-4.64-2.14 4.64-5.49.43 4.17 3.31-1.25 4.92zm17 0 4.72 2.6-1.25-4.92 4.17-3.31-5.5-.43-2.14-4.64-2.14 4.64-5.49.43 4.17 3.3-1.25 4.93zm17 0 4.72 2.6-1.25-4.92 4.17-3.31-5.5-.43-2.14-4.64-2.14 4.64-5.49.43 4.17 3.3-1.25 4.93zm17 0 4.72 2.6-1.25-4.92 4.17-3.31-5.5-.43-2.14-4.64-2.14 4.64-5.49.43 4.17 3.3-1.25 4.93zm17 0 4.72 2.6-1.25-4.92 4.17-3.31-5.5-.43-2.14-4.64-2.14 4.64-5.49.43 4.17 3.3-1.25 4.93z"/></symbol><use xlink:href="#sprite-stars-5" width="84" height="16" y="409"/><view id="sprite-stars-5-view" viewBox="0 409 84 16"/><symbol id="sprite-training-boots" fill="none" viewBox="0 0 26 25"><g fill="#2D383F" clip-path="url(#a)"><path d="M24.98 16.27c.77-2.44.14-5.2-.54-7.11a.4.4 0 0 0-.07-.2 17 17 0 0 0-.63-1.5.9.9 0 0 0 .56-.83v-3.7a.9.9 0 0 0-.88-.88h-10.91a.44.44 0 0 0-.44.47c.15 2.66-.05 4.47-.61 5.74l-.03.04v.07a5 5 0 0 1-.87 1.26l-.04.02v.03q-.77.75-1.77 1.2a31 31 0 0 1-3.5 1.3l-.23.08c-4.15 1.38-4.7 3.87-4.69 5.13v3.22q.01.24.22.38a13 13 0 0 0 3.26 1.4.44.44 0 0 0 .56-.44v-.1h.66v.44a.44.44 0 0 0 .37.45q.58.09 1.15.14a.44.44 0 0 0 .48-.44v-.56h.65v.63c0 .24.2.44.44.44q.56.01 1.15-.05a.44.44 0 0 0 .4-.45v-.57h.66v.39a.44.44 0 0 0 .52.44 15 15 0 0 0 2.4-.57l.07-.03c3.1-1.78 5.08-.32 5.16-.25q.11.09.27.09h.55a.44.44 0 0 0 .44-.45v-.75h.64v.74c0 .25.2.45.44.45h1.43a.44.44 0 0 0 .44-.44v-.75h.66v.74c0 .25.2.45.44.45h1.1a.44.44 0 0 0 .44-.44v-4.79a.44.44 0 0 0-.35-.44m-10.53-13.32h8.94v3.67h-8.94zm-5.58 8.85v.02q.55.45 1 .98a1 1 0 0 0-.12.45.85.85 0 1 0 .93-.84q-.42-.58-.96-1.05.6-.34 1.12-.8.64.61 1.2 1.3a.85.85 0 1 0 .79-.56h-.1q-.6-.74-1.28-1.38.32-.4.56-.83 1.03.53 2 1.2a.86.86 0 1 0 .47-.77 20 20 0 0 0-2.1-1.23c.49-1.29.7-3 .6-5.33h.58v3.68c0 .49.4.89.89.89h8.32q.18.36.52 1.17h-.18a4.88 4.88 0 0 0-2.88 8.8c-3.59.95-8.99 2.07-13.53 1.78.83-3.35-.17-5.41-.82-6.32a30 30 0 0 0 2.99-1.16m-3.88 1.41c.48.57 1.73 2.46.8 5.95a11 11 0 0 1-4.55-1.38l-.03-.3v-.04c-.03-.94.32-2.99 3.78-4.23m19.25 7.84v-.74a.44.44 0 0 0-.45-.45h-1.54a.44.44 0 0 0-.44.45v.74h-.55v-.74a.44.44 0 0 0-.44-.45h-1.53a.44.44 0 0 0-.45.45v.72c-.6-.38-2.8-1.47-5.93.28a14 14 0 0 1-1.7.44v-.3a.44.44 0 0 0-.45-.45h-1.53a.44.44 0 0 0-.45.44v.61h-.22v-.62a.44.44 0 0 0-.44-.44h-1.54a.44.44 0 0 0-.45.44v.53l-.22-.03v-.5a.44.44 0 0 0-.45-.44h-1.54a.44.44 0 0 0-.44.39q-1.2-.39-2.27-1.02v-1.59c1.94 1.03 4.44 1.41 7.1 1.41 7.08 0 15.18-2.7 16.13-3.03v3.9zm-.22-4.68c-.38.12-1.3.44-2.59.78a4 4 0 0 1 2.2-7.56v.01c.66 1.89 1.25 4.57.39 6.77"/><path d="M16.15 3.48a1.3 1.3 0 1 0 0 2.59 1.3 1.3 0 0 0 0-2.59m0 1.7a.4.4 0 1 1 0-.8.4.4 0 0 1 0 .8"/></g><defs><clipPath id="a"><path fill="#fff" d="M.33 0h25v25h-25z"/></clipPath></defs></symbol><use xlink:href="#sprite-training-boots" width="25" height="25" y="425"/><view id="sprite-training-boots-view" viewBox="0 425 25 25"/><symbol id="sprite-training-map" fill="none" viewBox="0 0 25 25"><g fill="#2D383F" clip-path="url(#a)"><path d="M24.17 22.28v-15.58a.46.46 0 0 0-.6-.46v.02l-2.09.65a6 6 0 0 0 .39-1.82 5.1 5.1 0 0 0-10.19 0 6 6 0 0 0 .36 1.74l-3.45-1.23h-.16l-.16.03-7.14 2.78a.5.5 0 0 0-.3.39v15.6a.46.46 0 0 0 .63.43l6.98-2.7 7.97 2.85q.15.05.3 0l7.13-2.24a.5.5 0 0 0 .33-.46m-7.4-21.35a4.17 4.17 0 0 1 4.17 4.16c0 1.81-2.72 6.82-4.17 9.27-1.45-2.47-4.16-7.48-4.16-9.27a4.17 4.17 0 0 1 4.16-4.16m6.49 21.03-6.23 1.95v-3.53a.46.46 0 0 0-.93 0v3.5l-7.2-2.58v-2.96a.46.46 0 0 0-.92 0v2.96l-6.22 2.43v-7.16l2.29-.93a.46.46 0 1 0-.35-.86l-1.94.79v-6.45l6.22-2.4v1.38a.46.46 0 0 0 .92 0v-1.4l3.56 1.27a64 64 0 0 0 3.92 7.55.46.46 0 0 0 .79 0 65 65 0 0 0 3.9-7.5l2.17-.69.02 7.6-2.35.56a.47.47 0 1 0 .11.93h.11l2.13-.52z"/><path d="M16.76 2.4a2.69 2.69 0 1 0 0 5.38 2.69 2.69 0 0 0 0-5.38m0 4.46a1.77 1.77 0 0 1-1.75-1.77h-.02a1.76 1.76 0 1 1 1.77 1.77m-6.06 7.1v.02l-2.24-.97a.5.5 0 0 0-.36 0l-1.9.77a.46.46 0 1 0 .35.86l1.72-.7 2.06.88.18.04a.46.46 0 0 0 .19-.9m7.57 2.66a.46.46 0 0 0-.52-.32v-.04l-1.15.28-1.94-.85a.47.47 0 0 0-.37.86l2.08.92.19.04h.1l1.3-.32a.46.46 0 0 0 .31-.57"/></g><defs><clipPath id="a"><path fill="#fff" d="M0 0h25v25h-25z"/></clipPath></defs></symbol><use xlink:href="#sprite-training-map" width="25" height="25" y="450"/><view id="sprite-training-map-view" viewBox="0 450 25 25"/><symbol id="sprite-training-mountain" fill="none" viewBox="0 0 25 25"><g fill="#2D383F" clip-path="url(#a)"><path d="m23.42 24.19-7.86-18.28a.48.48 0 0 0-.88 0l-4.74 11-2.93-6.75a.48.48 0 0 0-.88 0l-2.75 6.36-3.34 7.66a.48.48 0 0 0 .44.67h22.5a.48.48 0 0 0 .43-.66m-8.3-16.9 3.1 7.2h-1.09l-1.96-2.16a.48.48 0 0 0-.76.06l-.73 1.13h-1.23zm-8.54 4.24 2.45 5.66h-1.34a.5.5 0 0 0-.4.22l-.48.76-1.23-1.74a.5.5 0 0 0-.39-.2h-.63zm-5.34 12.37 2.9-6.72h.8l1.5 2.12a.5.5 0 0 0 .38.2.5.5 0 0 0 .4-.21l.73-1.14h1.49l2.48 5.73zm11.73 0-2.5-5.77 1.57-3.65h1.9a.5.5 0 0 0 .4-.22l.54-.82 1.68 1.87q.15.15.36.15h1.7l3.64 8.45zm-5.35-21.82a2.25 2.25 0 0 0-4.35.8v.26a2.25 2.25 0 0 0 .9 4.29l.03.02h3.34a2.68 2.68 0 1 0 .08-5.37m-.05 4.43h-3.34a1.3 1.3 0 1 1-.27-2.59.5.5 0 0 0 .36-.62 1.3 1.3 0 1 1 2.5-.64c.05.25.28.42.53.39h.22a1.73 1.73 0 0 1 0 3.46m16.14-3.87v-.25a2.25 2.25 0 0 0-4.35-.82 2.68 2.68 0 0 0 .1 5.36h3.34a2.25 2.25 0 0 0 .9-4.29m.37 2.3a1.3 1.3 0 0 1-1.26 1.03h-3.34a1.73 1.73 0 1 1 0-3.45h.22a.5.5 0 0 0 .51-.38 1.3 1.3 0 1 1 2.51.65.5.5 0 0 0 .36.62c.7.15 1.14.84 1 1.54"/></g><defs><clipPath id="a"><path fill="#fff" d="M0 0h25v25h-25z"/></clipPath></defs></symbol><use xlink:href="#sprite-training-mountain" width="25" height="25" y="475"/><view id="sprite-training-mountain-view" viewBox="0 475 25 25"/><symbol id="sprite-training-tree" fill="none" viewBox="0 0 26 25"><g clip-path="url(#a)"><path fill="#2D383F" d="m25.26 18.08-4.9-5.61h2.36a.5.5 0 0 0 .4-.8l-3.94-5.19h2a.5.5 0 0 0 .38-.83l-4.82-5.48a.5.5 0 0 0-.75 0l-4.83 5.48a.5.5 0 0 0 .38.83h2.03l-1.22 1.59-3.25-3.7a.5.5 0 0 0-.75 0l-4.12 4.69a.5.5 0 0 0 .37.83h1.6l-3.3 4.32a.5.5 0 0 0 .4.8h1.85l-4.08 4.68a.5.5 0 0 0 .38.83h5.54v3.5c0 .54.44.98.97.98h1.53a.97.97 0 0 0 .98-.97v-3.51h4.16v3.5c0 .55.43.98.97.98h1.53a.97.97 0 0 0 .97-.97v-5.11h6.78a.5.5 0 0 0 .38-.84m-15.8 5.92-1.47.03-.03-3.51h1.5zm5.17-4.48h-12.08l4.1-4.68a.5.5 0 0 0-.39-.84h-1.95l3.3-4.31a.5.5 0 0 0-.4-.8h-1.5l3-3.43 3.01 3.41-2.12 2.8a.5.5 0 0 0 .4.8h2.38l-4.91 5.62a.5.5 0 0 0 .38.83h6.78zm2.47 4.47-1.47.04-.03-5.11h1.5zm.03-6.08h-8.18l4.9-5.61a.5.5 0 0 0-.37-.83h-2.46l3.96-5.18a.5.5 0 0 0-.4-.8h-1.92l3.72-4.23 3.7 4.22h-1.93a.5.5 0 0 0-.4.81l3.94 5.18h-2.44a.5.5 0 0 0-.38.83l4.9 5.61z"/></g><defs><clipPath id="a"><path fill="#fff" d="M.67 0h25v25h-25z"/></clipPath></defs></symbol><use xlink:href="#sprite-training-tree" width="25" height="25" y="500"/><view id="sprite-training-tree-view" viewBox="0 500 25 25"/><symbol id="sprite-vk" fill="none" viewBox="0 0 16 9"><path fill="currentColor" d="M15.86 8.03c-.05-.07-.31-.64-1.6-1.82-1.33-1.22-1.15-1.02.46-3.14q1.46-1.93 1.25-2.42c-.11-.32-.84-.24-.84-.24l-2.4.02s-.18-.03-.3.05c-.14.08-.22.26-.22.26s-.38 1-.9 1.85c-1.06 1.79-1.5 1.88-1.67 1.77-.4-.26-.3-1.04-.3-1.6 0-1.74.27-2.46-.52-2.65-.26-.06-.46-.1-1.12-.1-.86-.02-1.59 0-2 .2-.28.13-.49.42-.36.44.16.02.52.1.71.35.25.33.24 1.07.24 1.07s.14 2.05-.33 2.3c-.32.18-.77-.18-1.72-1.8-.5-.84-.87-1.76-.87-1.76s-.07-.17-.2-.27c-.15-.1-.36-.14-.36-.14l-2.29.01s-.34.01-.47.16c-.11.13 0 .4 0 .4s1.78 4.13 3.81 6.21c1.86 1.9 3.97 1.78 3.97 1.78h.96s.28-.03.43-.19c.14-.14.13-.41.13-.41s-.02-1.26.58-1.45c.59-.19 1.34 1.22 2.14 1.76.6.41 1.06.32 1.06.32l2.14-.03s1.12-.07.59-.93"/></symbol><use xlink:href="#sprite-vk" width="16" height="9" y="525"/><view id="sprite-vk-view" viewBox="0 525 16 9"/></svg>